M48
;Layer_Color=9474304
;FILE_FORMAT=2:5
INCH,LZ
;TYPE=PLATED
T1F00S00C0.02756
T2F00S00C0.03200
T3F00S00C0.04000
T4F00S00C0.04882
T5F00S00C0.05118
%
T01
X0511Y0096
Y0106
Y0116
T02
X0449Y00885
Y00985
Y01085
X0479
Y00985
Y00885
Y01185
X0449
T03
X0226Y00635
X0252
X02785
X03045
X02
X0174
X0148
X0122
X0096
X007
X0044
X0018
Y01435
X0044
X007
X0096
X0122
X0148
X0174
X02
X0226
X0252
X02785
X03045
T04
X0416Y00935
Y01035
Y01135
T05
X05815Y0071
Y0081
Y0091
Y0101
Y0111
Y0121
Y0131
Y0141
M30
