G04*
G04 #@! TF.GenerationSoftware,Altium Limited,Altium Designer,21.8.1 (53)*
G04*
G04 Layer_Physical_Order=2*
G04 Layer_Color=16711680*
%FSLAX25Y25*%
%MOIN*%
G70*
G04*
G04 #@! TF.SameCoordinates,44C9CF5F-0DCB-41D1-9D9C-026A7C6AE30A*
G04*
G04*
G04 #@! TF.FilePolarity,Positive*
G04*
G01*
G75*
%ADD12C,0.01000*%
%ADD23C,0.07087*%
%ADD25R,0.07323X0.07323*%
%ADD26C,0.07323*%
%ADD27C,0.05118*%
%ADD28R,0.04724X0.04724*%
%ADD29C,0.04724*%
%ADD30C,0.08000*%
%ADD31R,0.06500X0.06500*%
G36*
X594500Y97020D02*
X584652D01*
X584445Y97520D01*
X585136Y98210D01*
X585734Y99246D01*
X586043Y100402D01*
Y100500D01*
X581500D01*
X576957D01*
Y100402D01*
X577266Y99246D01*
X577865Y98210D01*
X578555Y97520D01*
X578348Y97020D01*
X569000D01*
X568901Y97000D01*
X567000D01*
Y52520D01*
X406355D01*
X406003Y52875D01*
X406500Y107500D01*
X412701D01*
X412908Y107000D01*
X412270Y106362D01*
X411656Y105299D01*
X411339Y104114D01*
Y104000D01*
X416000D01*
X420661D01*
Y104114D01*
X420344Y105299D01*
X419730Y106362D01*
X419092Y107000D01*
X419299Y107500D01*
X423500D01*
Y74000D01*
X532000D01*
Y126000D01*
X580674D01*
X580740Y125500D01*
X579746Y125234D01*
X578710Y124636D01*
X577865Y123790D01*
X577266Y122754D01*
X576957Y121598D01*
Y121500D01*
X581500D01*
X586043D01*
Y121598D01*
X585734Y122754D01*
X585136Y123790D01*
X584290Y124636D01*
X583254Y125234D01*
X582260Y125500D01*
X582326Y126000D01*
X594500D01*
Y97020D01*
D02*
G37*
G36*
X423500Y109000D02*
X404500D01*
Y51500D01*
X569000D01*
Y96000D01*
X580674D01*
X580740Y95500D01*
X579746Y95234D01*
X578710Y94635D01*
X577865Y93790D01*
X577266Y92754D01*
X576957Y91598D01*
Y90402D01*
X577266Y89246D01*
X577865Y88210D01*
X578710Y87365D01*
X579746Y86766D01*
X580902Y86457D01*
X582098D01*
X583254Y86766D01*
X584290Y87365D01*
X585136Y88210D01*
X585734Y89246D01*
X586043Y90402D01*
Y91598D01*
X585734Y92754D01*
X585136Y93790D01*
X584290Y94635D01*
X583254Y95234D01*
X582260Y95500D01*
X582326Y96000D01*
X594577D01*
X595122Y28355D01*
X594770Y28000D01*
X388500D01*
Y109000D01*
X5000D01*
Y160000D01*
X423500D01*
Y109000D01*
D02*
G37*
%LPC*%
G36*
X586043Y120500D02*
X582000D01*
Y116457D01*
X582098D01*
X583254Y116766D01*
X584290Y117365D01*
X585136Y118210D01*
X585734Y119246D01*
X586043Y120402D01*
Y120500D01*
D02*
G37*
G36*
X581000D02*
X576957D01*
Y120402D01*
X577266Y119246D01*
X577865Y118210D01*
X578710Y117365D01*
X579746Y116766D01*
X580902Y116457D01*
X581000D01*
Y120500D01*
D02*
G37*
G36*
X582098Y115543D02*
X580902D01*
X579746Y115234D01*
X578710Y114636D01*
X577865Y113790D01*
X577266Y112754D01*
X576957Y111598D01*
Y110402D01*
X577266Y109246D01*
X577865Y108210D01*
X578710Y107364D01*
X579746Y106766D01*
X580902Y106457D01*
X582098D01*
X583254Y106766D01*
X584290Y107364D01*
X585136Y108210D01*
X585734Y109246D01*
X586043Y110402D01*
Y111598D01*
X585734Y112754D01*
X585136Y113790D01*
X584290Y114636D01*
X583254Y115234D01*
X582098Y115543D01*
D02*
G37*
G36*
Y105543D02*
X582000D01*
Y101500D01*
X586043D01*
Y101598D01*
X585734Y102754D01*
X585136Y103790D01*
X584290Y104636D01*
X583254Y105234D01*
X582098Y105543D01*
D02*
G37*
G36*
X581000D02*
X580902D01*
X579746Y105234D01*
X578710Y104636D01*
X577865Y103790D01*
X577266Y102754D01*
X576957Y101598D01*
Y101500D01*
X581000D01*
Y105543D01*
D02*
G37*
G36*
X420661Y103000D02*
X416500D01*
Y98839D01*
X416614D01*
X417799Y99156D01*
X418862Y99770D01*
X419730Y100638D01*
X420344Y101701D01*
X420661Y102886D01*
Y103000D01*
D02*
G37*
G36*
X415500D02*
X411339D01*
Y102886D01*
X411656Y101701D01*
X412270Y100638D01*
X413138Y99770D01*
X414201Y99156D01*
X415386Y98839D01*
X415500D01*
Y103000D01*
D02*
G37*
G36*
X420661Y98161D02*
X411339D01*
Y88839D01*
X420661D01*
Y98161D01*
D02*
G37*
G36*
X582098Y75543D02*
X580902D01*
X579746Y75234D01*
X578710Y74635D01*
X577865Y73790D01*
X577266Y72754D01*
X576957Y71598D01*
Y70402D01*
X577266Y69246D01*
X577865Y68210D01*
X578710Y67365D01*
X579746Y66766D01*
X580902Y66457D01*
X582098D01*
X583254Y66766D01*
X584290Y67365D01*
X585136Y68210D01*
X585734Y69246D01*
X586043Y70402D01*
Y71598D01*
X585734Y72754D01*
X585136Y73790D01*
X584290Y74635D01*
X583254Y75234D01*
X582098Y75543D01*
D02*
G37*
G36*
Y55543D02*
X580902D01*
X579746Y55234D01*
X578710Y54636D01*
X577865Y53790D01*
X577266Y52754D01*
X576957Y51598D01*
Y50402D01*
X577266Y49246D01*
X577865Y48210D01*
X578710Y47365D01*
X579746Y46766D01*
X580902Y46457D01*
X582098D01*
X583254Y46766D01*
X584290Y47365D01*
X585136Y48210D01*
X585734Y49246D01*
X586043Y50402D01*
Y51598D01*
X585734Y52754D01*
X585136Y53790D01*
X584290Y54636D01*
X583254Y55234D01*
X582098Y55543D01*
D02*
G37*
%LPD*%
D12*
X436500Y108500D02*
X449000D01*
X431500Y113500D02*
X436500Y108500D01*
X416000Y113500D02*
X431500D01*
X444000Y98500D02*
X449000D01*
X439000Y93500D02*
X444000Y98500D01*
X439000Y87500D02*
Y93500D01*
Y87500D02*
X449000Y77500D01*
X482500D01*
X492000Y87000D01*
Y99500D01*
X498500Y106000D02*
X511000D01*
X492000Y99500D02*
X498500Y106000D01*
D23*
X581500Y51000D02*
D03*
Y61000D02*
D03*
Y121000D02*
D03*
Y131000D02*
D03*
Y101000D02*
D03*
Y111000D02*
D03*
Y91000D02*
D03*
Y71000D02*
D03*
Y81000D02*
D03*
D25*
X416000Y93500D02*
D03*
D26*
Y103500D02*
D03*
Y113500D02*
D03*
D27*
X449000Y118500D02*
D03*
Y108500D02*
D03*
X479000D02*
D03*
Y118500D02*
D03*
X449000Y98500D02*
D03*
Y88500D02*
D03*
X479000Y98500D02*
D03*
Y88500D02*
D03*
D28*
X511000Y116000D02*
D03*
D29*
Y106000D02*
D03*
Y96000D02*
D03*
D30*
X304500Y143500D02*
D03*
Y63500D02*
D03*
X278500Y143500D02*
D03*
Y63500D02*
D03*
X252000Y143500D02*
D03*
Y63500D02*
D03*
X226000Y143500D02*
D03*
Y63500D02*
D03*
X200000Y143500D02*
D03*
Y63500D02*
D03*
X174000Y143500D02*
D03*
Y63500D02*
D03*
X148000Y143500D02*
D03*
Y63500D02*
D03*
X122000Y143500D02*
D03*
Y63500D02*
D03*
X96000Y143500D02*
D03*
Y63500D02*
D03*
X70000Y143500D02*
D03*
Y63500D02*
D03*
X44000Y143500D02*
D03*
Y63500D02*
D03*
X18000Y143500D02*
D03*
Y63500D02*
D03*
D31*
X581500Y141000D02*
D03*
M02*
