G04*
G04 #@! TF.GenerationSoftware,Altium Limited,Altium Designer,21.2.2 (38)*
G04*
G04 Layer_Color=65535*
%FSLAX25Y25*%
%MOIN*%
G70*
G04*
G04 #@! TF.SameCoordinates,DF2CB07D-5BEF-4587-B490-EA5FA00302EE*
G04*
G04*
G04 #@! TF.FilePolarity,Positive*
G04*
G01*
G75*
%ADD10C,0.00787*%
%ADD11C,0.00600*%
%ADD12C,0.01000*%
%ADD13C,0.00394*%
%ADD14C,0.00500*%
D10*
X426394Y93500D02*
G03*
X426394Y93500I-394J0D01*
G01*
X501000Y126000D02*
X521000D01*
X501000Y81000D02*
Y126000D01*
Y81000D02*
X511000D01*
Y86000D01*
X521000D01*
Y126000D01*
D11*
X460000Y123500D02*
G03*
X468000Y123500I4000J0D01*
G01*
X452500Y83500D02*
X475500D01*
X468000Y123500D02*
X475500D01*
X452500D02*
X460000D01*
D12*
X334000Y24000D02*
X404000D01*
X334000Y186000D02*
X404000D01*
Y24000D02*
Y186000D01*
X334000Y24000D02*
Y186000D01*
X304500Y71500D02*
Y80000D01*
Y127000D02*
Y135500D01*
Y80000D02*
X314500D01*
Y127000D01*
X294500D02*
X314500D01*
X294500Y80000D02*
Y127000D01*
Y80000D02*
X304500D01*
X278500Y71500D02*
Y80000D01*
Y127000D02*
Y135500D01*
Y80000D02*
X288500D01*
Y127000D01*
X268500D02*
X288500D01*
X268500Y80000D02*
Y127000D01*
Y80000D02*
X278500D01*
X252000Y71500D02*
Y80000D01*
Y127000D02*
Y135500D01*
Y80000D02*
X262000D01*
Y127000D01*
X242000D02*
X262000D01*
X242000Y80000D02*
Y127000D01*
Y80000D02*
X252000D01*
X226000Y71500D02*
Y80000D01*
Y127000D02*
Y135500D01*
Y80000D02*
X236000D01*
Y127000D01*
X216000D02*
X236000D01*
X216000Y80000D02*
Y127000D01*
Y80000D02*
X226000D01*
X200000Y71500D02*
Y80000D01*
Y127000D02*
Y135500D01*
Y80000D02*
X210000D01*
Y127000D01*
X190000D02*
X210000D01*
X190000Y80000D02*
Y127000D01*
Y80000D02*
X200000D01*
X174000Y71500D02*
Y80000D01*
Y127000D02*
Y135500D01*
Y80000D02*
X184000D01*
Y127000D01*
X164000D02*
X184000D01*
X164000Y80000D02*
Y127000D01*
Y80000D02*
X174000D01*
X148000Y71500D02*
Y80000D01*
Y127000D02*
Y135500D01*
Y80000D02*
X158000D01*
Y127000D01*
X138000D02*
X158000D01*
X138000Y80000D02*
Y127000D01*
Y80000D02*
X148000D01*
X122000Y71500D02*
Y80000D01*
Y127000D02*
Y135500D01*
Y80000D02*
X132000D01*
Y127000D01*
X112000D02*
X132000D01*
X112000Y80000D02*
Y127000D01*
Y80000D02*
X122000D01*
X96000Y71500D02*
Y80000D01*
Y127000D02*
Y135500D01*
Y80000D02*
X106000D01*
Y127000D01*
X86000D02*
X106000D01*
X86000Y80000D02*
Y127000D01*
Y80000D02*
X96000D01*
X70000Y71500D02*
Y80000D01*
Y127000D02*
Y135500D01*
Y80000D02*
X80000D01*
Y127000D01*
X60000D02*
X80000D01*
X60000Y80000D02*
Y127000D01*
Y80000D02*
X70000D01*
X44000Y71500D02*
Y80000D01*
Y127000D02*
Y135500D01*
Y80000D02*
X54000D01*
Y127000D01*
X34000D02*
X54000D01*
X34000Y80000D02*
Y127000D01*
Y80000D02*
X44000D01*
X18000Y71500D02*
Y80000D01*
Y127000D02*
Y135500D01*
Y80000D02*
X28000D01*
Y127000D01*
X8000D02*
X28000D01*
X8000Y80000D02*
Y127000D01*
Y80000D02*
X18000D01*
X579000Y153000D02*
Y151000D01*
Y152000D01*
X584998D01*
X583998Y153000D01*
X13499Y14498D02*
X9500D01*
Y8500D01*
X13499D01*
X9500Y11499D02*
X11499D01*
X15498Y14498D02*
Y8500D01*
X19497D01*
X25495Y14498D02*
X21496D01*
Y8500D01*
X25495D01*
X21496Y11499D02*
X23495D01*
X31493Y13498D02*
X30493Y14498D01*
X28494D01*
X27494Y13498D01*
Y9500D01*
X28494Y8500D01*
X30493D01*
X31493Y9500D01*
X33492Y14498D02*
X37491D01*
X35492D01*
Y8500D01*
X39490D02*
Y14498D01*
X42489D01*
X43489Y13498D01*
Y11499D01*
X42489Y10499D01*
X39490D01*
X41490D02*
X43489Y8500D01*
X48487Y14498D02*
X46488D01*
X45488Y13498D01*
Y9500D01*
X46488Y8500D01*
X48487D01*
X49487Y9500D01*
Y13498D01*
X48487Y14498D01*
X51486Y8500D02*
Y14498D01*
X55485Y8500D01*
Y14498D01*
X57485D02*
X59484D01*
X58484D01*
Y8500D01*
X57485D01*
X59484D01*
X66482Y13498D02*
X65482Y14498D01*
X63482D01*
X62483Y13498D01*
Y9500D01*
X63482Y8500D01*
X65482D01*
X66482Y9500D01*
X74479Y14498D02*
Y8500D01*
X78478D01*
X83476Y14498D02*
X81477D01*
X80477Y13498D01*
Y9500D01*
X81477Y8500D01*
X83476D01*
X84476Y9500D01*
Y13498D01*
X83476Y14498D01*
X86475Y8500D02*
Y12499D01*
X88475Y14498D01*
X90474Y12499D01*
Y8500D01*
Y11499D01*
X86475D01*
X92473Y14498D02*
Y8500D01*
X95472D01*
X96472Y9500D01*
Y13498D01*
X95472Y14498D01*
X92473D01*
X104469D02*
Y10499D01*
X106469Y8500D01*
X108468Y10499D01*
Y14498D01*
X110467Y8500D02*
X112467D01*
X111467D01*
Y14498D01*
X110467Y13498D01*
X548000Y129857D02*
Y135855D01*
X550999D01*
X551998Y134855D01*
Y132856D01*
X550999Y131856D01*
X548000D01*
X557997Y134855D02*
X556997Y135855D01*
X554997D01*
X553998Y134855D01*
Y133856D01*
X554997Y132856D01*
X556997D01*
X557997Y131856D01*
Y130857D01*
X556997Y129857D01*
X554997D01*
X553998Y130857D01*
X559996Y132856D02*
X563995D01*
X536004Y99428D02*
Y105427D01*
X538003Y103427D01*
X540002Y105427D01*
Y99428D01*
X546000Y105427D02*
X542002D01*
Y99428D01*
X546000D01*
X542002Y102428D02*
X544001D01*
X548000Y99428D02*
Y103427D01*
X549999Y105427D01*
X551998Y103427D01*
Y99428D01*
Y102428D01*
X548000D01*
X557997Y104427D02*
X556997Y105427D01*
X554997D01*
X553998Y104427D01*
Y103427D01*
X554997Y102428D01*
X556997D01*
X557997Y101428D01*
Y100428D01*
X556997Y99428D01*
X554997D01*
X553998Y100428D01*
X559996Y102428D02*
X563995D01*
X561995Y104427D02*
Y100428D01*
X542002Y115569D02*
Y109571D01*
X545001D01*
X546000Y110571D01*
Y114570D01*
X545001Y115569D01*
X542002D01*
X548000D02*
Y110571D01*
X548999Y109571D01*
X550999D01*
X551998Y110571D01*
Y115569D01*
X553998D02*
X557997D01*
X555997D01*
Y109571D01*
X559996Y112570D02*
X563995D01*
X542002Y125712D02*
Y119714D01*
X545001D01*
X546000Y120714D01*
Y124713D01*
X545001Y125712D01*
X542002D01*
X548000D02*
Y120714D01*
X548999Y119714D01*
X550999D01*
X551998Y120714D01*
Y125712D01*
X553998D02*
X557997D01*
X555997D01*
Y119714D01*
X559996Y122713D02*
X563995D01*
X561995Y124713D02*
Y120714D01*
X548000Y140000D02*
Y145998D01*
X550999D01*
X551998Y144998D01*
Y142999D01*
X550999Y141999D01*
X548000D01*
X557997Y144998D02*
X556997Y145998D01*
X554997D01*
X553998Y144998D01*
Y143999D01*
X554997Y142999D01*
X556997D01*
X557997Y141999D01*
Y141000D01*
X556997Y140000D01*
X554997D01*
X553998Y141000D01*
X559996Y142999D02*
X563995D01*
X561995Y144998D02*
Y141000D01*
X536004Y89286D02*
Y95284D01*
X538003Y93284D01*
X540002Y95284D01*
Y89286D01*
X546000Y95284D02*
X542002D01*
Y89286D01*
X546000D01*
X542002Y92285D02*
X544001D01*
X548000Y89286D02*
Y93284D01*
X549999Y95284D01*
X551998Y93284D01*
Y89286D01*
Y92285D01*
X548000D01*
X557997Y94284D02*
X556997Y95284D01*
X554997D01*
X553998Y94284D01*
Y93284D01*
X554997Y92285D01*
X556997D01*
X557997Y91285D01*
Y90285D01*
X556997Y89286D01*
X554997D01*
X553998Y90285D01*
X559996Y92285D02*
X563995D01*
X536004Y79143D02*
Y85141D01*
X538003Y83142D01*
X540002Y85141D01*
Y79143D01*
X546000Y85141D02*
X542002D01*
Y79143D01*
X546000D01*
X542002Y82142D02*
X544001D01*
X548000Y79143D02*
Y83142D01*
X549999Y85141D01*
X551998Y83142D01*
Y79143D01*
Y82142D01*
X548000D01*
X557997Y84141D02*
X556997Y85141D01*
X554997D01*
X553998Y84141D01*
Y83142D01*
X554997Y82142D01*
X556997D01*
X557997Y81142D01*
Y80142D01*
X556997Y79143D01*
X554997D01*
X553998Y80142D01*
X559996Y82142D02*
X563995D01*
X561995Y84141D02*
Y80142D01*
X536004Y69000D02*
Y74998D01*
X538003Y72999D01*
X540002Y74998D01*
Y69000D01*
X546000Y74998D02*
X542002D01*
Y69000D01*
X546000D01*
X542002Y71999D02*
X544001D01*
X548000Y69000D02*
Y72999D01*
X549999Y74998D01*
X551998Y72999D01*
Y69000D01*
Y71999D01*
X548000D01*
X557997Y73998D02*
X556997Y74998D01*
X554997D01*
X553998Y73998D01*
Y72999D01*
X554997Y71999D01*
X556997D01*
X557997Y70999D01*
Y70000D01*
X556997Y69000D01*
X554997D01*
X553998Y70000D01*
X559996Y71999D02*
X563995D01*
X365502Y78008D02*
X371500D01*
X368501D01*
Y82007D01*
X365502D01*
X371500D01*
X365502Y88005D02*
Y84006D01*
X371500D01*
Y88005D01*
X368501Y84006D02*
Y86006D01*
X371500Y90004D02*
X367501D01*
X365502Y92004D01*
X367501Y94003D01*
X371500D01*
X368501D01*
Y90004D01*
X365502Y96002D02*
Y100001D01*
Y98002D01*
X371500D01*
X366502Y111997D02*
X365502Y110998D01*
Y108998D01*
X366502Y107999D01*
X367501D01*
X368501Y108998D01*
Y110998D01*
X369501Y111997D01*
X370500D01*
X371500Y110998D01*
Y108998D01*
X370500Y107999D01*
X365502Y113997D02*
Y115996D01*
Y114996D01*
X371500D01*
Y113997D01*
Y115996D01*
Y118995D02*
X365502D01*
X371500Y122994D01*
X365502D01*
Y124993D02*
X371500D01*
X369501D01*
X365502Y128992D01*
X368501Y125993D01*
X371500Y128992D01*
X566000Y156499D02*
X564001D01*
X565000D01*
Y151501D01*
X564001Y150501D01*
X563001D01*
X562001Y151501D01*
X567999Y150501D02*
X569999D01*
X568999D01*
Y156499D01*
X567999Y155499D01*
X447000Y132798D02*
Y127800D01*
X448000Y126800D01*
X449999D01*
X450999Y127800D01*
Y132798D01*
X452998Y126800D02*
X454997D01*
X453998D01*
Y132798D01*
X452998Y131798D01*
X501600Y129400D02*
Y135398D01*
X504599D01*
X505599Y134398D01*
Y132399D01*
X504599Y131399D01*
X501600D01*
X503599D02*
X505599Y129400D01*
X507598D02*
X509597D01*
X508598D01*
Y135398D01*
X507598Y134398D01*
X512596D02*
X513596Y135398D01*
X515595D01*
X516595Y134398D01*
Y133399D01*
X515595Y132399D01*
X514596D01*
X515595D01*
X516595Y131399D01*
Y130400D01*
X515595Y129400D01*
X513596D01*
X512596Y130400D01*
X295000Y150900D02*
Y156898D01*
X297999D01*
X298999Y155898D01*
Y153899D01*
X297999Y152899D01*
X295000D01*
X296999D02*
X298999Y150900D01*
X300998D02*
X302997D01*
X301998D01*
Y156898D01*
X300998Y155898D01*
X309995Y150900D02*
X305996D01*
X309995Y154899D01*
Y155898D01*
X308996Y156898D01*
X306996D01*
X305996Y155898D01*
X269000Y150900D02*
Y156898D01*
X271999D01*
X272999Y155898D01*
Y153899D01*
X271999Y152899D01*
X269000D01*
X270999D02*
X272999Y150900D01*
X274998D02*
X276997D01*
X275998D01*
Y156898D01*
X274998Y155898D01*
X279996Y150900D02*
X281996D01*
X280996D01*
Y156898D01*
X279996Y155898D01*
X242500Y150900D02*
Y156898D01*
X245499D01*
X246499Y155898D01*
Y153899D01*
X245499Y152899D01*
X242500D01*
X244499D02*
X246499Y150900D01*
X248498D02*
X250497D01*
X249498D01*
Y156898D01*
X248498Y155898D01*
X253496D02*
X254496Y156898D01*
X256495D01*
X257495Y155898D01*
Y151900D01*
X256495Y150900D01*
X254496D01*
X253496Y151900D01*
Y155898D01*
X216500Y150900D02*
Y156898D01*
X219499D01*
X220499Y155898D01*
Y153899D01*
X219499Y152899D01*
X216500D01*
X218499D02*
X220499Y150900D01*
X222498Y151900D02*
X223498Y150900D01*
X225497D01*
X226497Y151900D01*
Y155898D01*
X225497Y156898D01*
X223498D01*
X222498Y155898D01*
Y154899D01*
X223498Y153899D01*
X226497D01*
X190500Y150900D02*
Y156898D01*
X193499D01*
X194499Y155898D01*
Y153899D01*
X193499Y152899D01*
X190500D01*
X192499D02*
X194499Y150900D01*
X196498Y155898D02*
X197498Y156898D01*
X199497D01*
X200497Y155898D01*
Y154899D01*
X199497Y153899D01*
X200497Y152899D01*
Y151900D01*
X199497Y150900D01*
X197498D01*
X196498Y151900D01*
Y152899D01*
X197498Y153899D01*
X196498Y154899D01*
Y155898D01*
X197498Y153899D02*
X199497D01*
X164500Y150900D02*
Y156898D01*
X167499D01*
X168499Y155898D01*
Y153899D01*
X167499Y152899D01*
X164500D01*
X166499D02*
X168499Y150900D01*
X170498Y156898D02*
X174497D01*
Y155898D01*
X170498Y151900D01*
Y150900D01*
X138500D02*
Y156898D01*
X141499D01*
X142499Y155898D01*
Y153899D01*
X141499Y152899D01*
X138500D01*
X140499D02*
X142499Y150900D01*
X148497Y156898D02*
X146497Y155898D01*
X144498Y153899D01*
Y151900D01*
X145498Y150900D01*
X147497D01*
X148497Y151900D01*
Y152899D01*
X147497Y153899D01*
X144498D01*
X112500Y150900D02*
Y156898D01*
X115499D01*
X116499Y155898D01*
Y153899D01*
X115499Y152899D01*
X112500D01*
X114499D02*
X116499Y150900D01*
X122497Y156898D02*
X118498D01*
Y153899D01*
X120497Y154899D01*
X121497D01*
X122497Y153899D01*
Y151900D01*
X121497Y150900D01*
X119498D01*
X118498Y151900D01*
X86500Y150900D02*
Y156898D01*
X89499D01*
X90499Y155898D01*
Y153899D01*
X89499Y152899D01*
X86500D01*
X88499D02*
X90499Y150900D01*
X95497D02*
Y156898D01*
X92498Y153899D01*
X96497D01*
X60500Y150900D02*
Y156898D01*
X63499D01*
X64499Y155898D01*
Y153899D01*
X63499Y152899D01*
X60500D01*
X62499D02*
X64499Y150900D01*
X66498Y155898D02*
X67498Y156898D01*
X69497D01*
X70497Y155898D01*
Y154899D01*
X69497Y153899D01*
X68497D01*
X69497D01*
X70497Y152899D01*
Y151900D01*
X69497Y150900D01*
X67498D01*
X66498Y151900D01*
X34500Y150900D02*
Y156898D01*
X37499D01*
X38499Y155898D01*
Y153899D01*
X37499Y152899D01*
X34500D01*
X36499D02*
X38499Y150900D01*
X44497D02*
X40498D01*
X44497Y154899D01*
Y155898D01*
X43497Y156898D01*
X41498D01*
X40498Y155898D01*
X8500Y150900D02*
Y156898D01*
X11499D01*
X12499Y155898D01*
Y153899D01*
X11499Y152899D01*
X8500D01*
X10499D02*
X12499Y150900D01*
X14498D02*
X16497D01*
X15498D01*
Y156898D01*
X14498Y155898D01*
X412500Y129001D02*
Y132999D01*
X411500Y133999D01*
X409501D01*
X408501Y132999D01*
Y129001D01*
X409501Y128001D01*
X411500D01*
X410501Y130000D02*
X412500Y128001D01*
X411500D02*
X412500Y129001D01*
X414499Y128001D02*
X416499D01*
X415499D01*
Y133999D01*
X414499Y132999D01*
D13*
X568705Y146787D02*
X594295D01*
X568705Y65213D02*
Y146787D01*
X594295Y65213D02*
Y146787D01*
X568705Y65213D02*
X594295D01*
D14*
X404740Y82752D02*
X423244D01*
Y124248D01*
X404740D02*
X423244D01*
X404740Y82752D02*
Y124248D01*
M02*
