G04*
G04 #@! TF.GenerationSoftware,Altium Limited,Altium Designer,21.8.1 (53)*
G04*
G04 Layer_Color=255*
%FSLAX25Y25*%
%MOIN*%
G70*
G04*
G04 #@! TF.SameCoordinates,44C9CF5F-0DCB-41D1-9D9C-026A7C6AE30A*
G04*
G04*
G04 #@! TF.FilePolarity,Positive*
G04*
G01*
G75*
%ADD23C,0.07087*%
%ADD25R,0.07323X0.07323*%
%ADD26C,0.07323*%
%ADD27C,0.05118*%
%ADD28R,0.04724X0.04724*%
%ADD29C,0.04724*%
%ADD30C,0.08000*%
%ADD31R,0.06500X0.06500*%
D23*
X581500Y51000D02*
D03*
Y61000D02*
D03*
Y121000D02*
D03*
Y131000D02*
D03*
Y101000D02*
D03*
Y111000D02*
D03*
Y91000D02*
D03*
Y71000D02*
D03*
Y81000D02*
D03*
D25*
X416000Y93500D02*
D03*
D26*
Y103500D02*
D03*
Y113500D02*
D03*
D27*
X449000Y118500D02*
D03*
Y108500D02*
D03*
X479000D02*
D03*
Y118500D02*
D03*
X449000Y98500D02*
D03*
Y88500D02*
D03*
X479000Y98500D02*
D03*
Y88500D02*
D03*
D28*
X511000Y116000D02*
D03*
D29*
Y106000D02*
D03*
Y96000D02*
D03*
D30*
X304500Y143500D02*
D03*
Y63500D02*
D03*
X278500Y143500D02*
D03*
Y63500D02*
D03*
X252000Y143500D02*
D03*
Y63500D02*
D03*
X226000Y143500D02*
D03*
Y63500D02*
D03*
X200000Y143500D02*
D03*
Y63500D02*
D03*
X174000Y143500D02*
D03*
Y63500D02*
D03*
X148000Y143500D02*
D03*
Y63500D02*
D03*
X122000Y143500D02*
D03*
Y63500D02*
D03*
X96000Y143500D02*
D03*
Y63500D02*
D03*
X70000Y143500D02*
D03*
Y63500D02*
D03*
X44000Y143500D02*
D03*
Y63500D02*
D03*
X18000Y143500D02*
D03*
Y63500D02*
D03*
D31*
X581500Y141000D02*
D03*
M02*
