G04*
G04 #@! TF.GenerationSoftware,Altium Limited,Altium Designer,21.2.2 (38)*
G04*
G04 Layer_Color=16711935*
%FSLAX25Y25*%
%MOIN*%
G70*
G04*
G04 #@! TF.SameCoordinates,DF2CB07D-5BEF-4587-B490-EA5FA00302EE*
G04*
G04*
G04 #@! TF.FilePolarity,Negative*
G04*
G01*
G75*
%ADD15C,0.07887*%
%ADD17R,0.08123X0.08123*%
%ADD18C,0.08123*%
%ADD19C,0.05918*%
%ADD20R,0.05524X0.05524*%
%ADD21C,0.05524*%
%ADD22C,0.08800*%
%ADD32R,0.07300X0.07300*%
D15*
X581500Y121000D02*
D03*
Y131000D02*
D03*
Y101000D02*
D03*
Y111000D02*
D03*
Y91000D02*
D03*
Y71000D02*
D03*
Y81000D02*
D03*
D17*
X416000Y93500D02*
D03*
D18*
Y103500D02*
D03*
Y113500D02*
D03*
D19*
X449000Y118500D02*
D03*
Y108500D02*
D03*
X479000D02*
D03*
Y118500D02*
D03*
X449000Y98500D02*
D03*
Y88500D02*
D03*
X479000Y98500D02*
D03*
Y88500D02*
D03*
D20*
X511000Y116000D02*
D03*
D21*
Y106000D02*
D03*
Y96000D02*
D03*
D22*
X304500Y143500D02*
D03*
Y63500D02*
D03*
X278500Y143500D02*
D03*
Y63500D02*
D03*
X252000Y143500D02*
D03*
Y63500D02*
D03*
X226000Y143500D02*
D03*
Y63500D02*
D03*
X200000Y143500D02*
D03*
Y63500D02*
D03*
X174000Y143500D02*
D03*
Y63500D02*
D03*
X148000Y143500D02*
D03*
Y63500D02*
D03*
X122000Y143500D02*
D03*
Y63500D02*
D03*
X96000Y143500D02*
D03*
Y63500D02*
D03*
X70000Y143500D02*
D03*
Y63500D02*
D03*
X44000Y143500D02*
D03*
Y63500D02*
D03*
X18000Y143500D02*
D03*
Y63500D02*
D03*
D32*
X581500Y141000D02*
D03*
M02*
